<?xml version="1.0" encoding="UTF-8" standalone="no"?>
<!DOCTYPE svg PUBLIC "-//W3C//DTD SVG 1.1//EN" "http://www.w3.org/Graphics/SVG/1.1/DTD/svg11.dtd">
<svg width="100%" height="100%" viewBox="0 0 2215 1227" version="1.1" xmlns="http://www.w3.org/2000/svg" xmlns:xlink="http://www.w3.org/1999/xlink" xml:space="preserve" xmlns:serif="http://www.serif.com/" style="fill-rule:evenodd;clip-rule:evenodd;stroke-linejoin:round;stroke-miterlimit:2;">
    <g transform="matrix(1,0,0,1,-646.624531,-627.366325)">
        <g transform="matrix(1.876717,0,0,1.876717,-1539.375106,-980.921727)">
            <path d="M2124.14,1162.98L2344.92,1162.98C2335.67,1266.35 2333.44,1370.98 2329.81,1474.52C2201.4,1499.39 2061.89,1520.47 1935.71,1477.56C1859.71,1451.7 1814.95,1408.96 1787.67,1353.67L1792.35,1341.93L1822.43,1268.04C1828.03,1254.25 1834.59,1236.18 1841.69,1223.01C1842.77,1306.16 1872.76,1396.3 1991.61,1431.25C2076.25,1456.15 2169.78,1445.11 2252.09,1421.59C2253.17,1355.07 2258.18,1285.32 2260.75,1218.53C2212.99,1218.41 2169.02,1219.33 2121.4,1220.55C2122.57,1201.37 2123.48,1182.18 2124.14,1162.98Z" style="fill:rgb(3,3,4);fill-rule:nonzero;"/>
        </g>
        <g transform="matrix(1.876717,0,0,1.876717,-1539.375106,-980.921727)">
            <path d="M1190.14,904.566L1347.53,904.517C1411.01,904.516 1472.74,902.575 1534.99,913.563C1593.78,923.94 1633.9,952.581 1663.54,988.735C1677.07,1005.24 1706.69,1047.07 1703.44,1066.13C1701.49,1077.51 1689.55,1106.41 1684.88,1118.56C1672.64,1060.5 1656.47,1010.37 1594.57,966.235C1538.52,926.267 1432.79,930.922 1357.25,930.969C1313.92,930.87 1270.6,931.052 1227.28,931.514C1220.34,1049.06 1217.66,1168.15 1211.71,1285.93L1203.99,1465.55C1302.43,1465.38 1428.56,1474.26 1520.03,1442.63C1539.22,1435.99 1556.54,1424.68 1572.07,1414.43C1566.42,1428.96 1560.95,1443.53 1555.63,1458.12C1477.94,1494.9 1386.24,1492.73 1297.98,1492.56C1253.59,1492.3 1209.19,1492.43 1164.8,1492.95C1164.94,1472.44 1167.45,1447.3 1168.79,1426.49L1176.88,1299.27C1180.02,1231.22 1182.56,1163.16 1184.5,1095.09C1186.75,1032.38 1190.57,967.004 1190.14,904.566Z" style="fill:rgb(3,3,4);fill-rule:nonzero;"/>
        </g>
        <g transform="matrix(1.876717,0,0,1.876717,-1539.375106,-980.921727)">
            <path d="M2099.47,895.755C2167.58,890.656 2255.55,904.412 2320.97,916.959C2320.72,938.989 2323.45,965.046 2325.22,987.288C2236.95,960.456 2177.95,947.392 2081.08,955.237C1999.9,968.259 1956.15,988.643 1908.25,1036.32L1950.76,925.13C1997.28,906.161 2046.45,898.519 2099.47,895.755Z" style="fill:rgb(3,3,4);fill-rule:nonzero;"/>
        </g>
        <g transform="matrix(1.876717,0,0,1.876717,-1539.375106,-980.921727)">
            <path d="M1878.44,856.969L1882.22,859.294C1883.01,861.003 1883.44,861.691 1882.71,863.567C1855.58,933.217 1829.2,1003.21 1802.64,1072.96L1635.92,1510.38C1632.23,1509.09 1633.48,1509.68 1630.63,1507.51C1633,1497.57 1639.45,1482.59 1643.34,1472.35L1667.29,1409.48L1743.08,1210.58L1832.84,974.877L1861.36,900.076C1866.43,886.777 1872.19,869.515 1878.44,856.969Z" style="fill:rgb(3,3,4);fill-rule:nonzero;"/>
        </g>
    </g>
</svg>
